{
	"asset":
	{
		"version": "2.0",
		"generator": "Unreal Engine 5.2.1"
	},
	"scene": 0,
	"accessors": [
		{
			"bufferView": 0,
			"count": 2364,
			"type": "SCALAR",
			"componentType": 5123
		},
		{
			"bufferView": 1,
			"count": 829,
			"type": "VEC3",
			"componentType": 5126,
			"min": [ -0.416898191, -0.211125448, -1.01067865e-08 ],
			"max": [ 0.524359584, 0.211125448, 0.125730589 ]
		},
		{
			"bufferView": 2,
			"count": 829,
			"type": "VEC3",
			"componentType": 5126
		},
		{
			"bufferView": 3,
			"count": 829,
			"type": "VEC4",
			"componentType": 5126
		},
		{
			"bufferView": 4,
			"count": 829,
			"type": "VEC2",
			"componentType": 5126
		},
		{
			"bufferView": 5,
			"count": 829,
			"type": "VEC2",
			"componentType": 5126
		}
	],
	"buffers": [
		{
			"uri": "M_FengMao_Shield_Ring.bin",
			"byteLength": 51152
		}
	],
	"bufferViews": [
		{
			"buffer": 0,
			"byteLength": 4728,
			"target": 34963
		},
		{
			"buffer": 0,
			"byteLength": 9948,
			"byteOffset": 4728,
			"target": 34962
		},
		{
			"buffer": 0,
			"byteLength": 9948,
			"byteOffset": 14676,
			"target": 34962
		},
		{
			"buffer": 0,
			"byteLength": 13264,
			"byteOffset": 24624,
			"target": 34962
		},
		{
			"buffer": 0,
			"byteLength": 6632,
			"byteOffset": 37888,
			"target": 34962
		},
		{
			"buffer": 0,
			"byteLength": 6632,
			"byteOffset": 44520,
			"target": 34962
		}
	],
	"images": [
		{
			"uri": "M_FengMao_Shield_Ring_SM_FengMao_ShieldStage3_BaseColor.png"
		}
	],
	"materials": [
		{
			"name": "M_FengMao_Shield_Ring_SM_FengMao_ShieldStage3",
			"pbrMetallicRoughness":
			{
				"baseColorTexture":
				{
					"index": 0,
					"texCoord": 1
				}
			},
			"alphaMode": "BLEND",
			"doubleSided": true,
			"extensions":
			{
				"KHR_materials_unlit":
				{
				}
			}
		}
	],
	"meshes": [
		{
			"name": "SM_FengMao_ShieldStage3",
			"primitives": [
				{
					"attributes":
					{
						"POSITION": 1,
						"NORMAL": 2,
						"TANGENT": 3,
						"TEXCOORD_0": 4,
						"TEXCOORD_1": 5
					},
					"indices": 0,
					"material": 0
				}
			]
		}
	],
	"nodes": [
		{
			"mesh": 0
		}
	],
	"samplers": [
		{
			"minFilter": 9987,
			"magFilter": 9729
		}
	],
	"scenes": [
		{
			"nodes": [ 0 ]
		}
	],
	"textures": [
		{
			"name": "M_FengMao_Shield_Ring_SM_FengMao_ShieldStage3_BaseColor",
			"sampler": 0,
			"source": 0
		}
	],
	"extensionsUsed": [
		"KHR_materials_unlit"
	]
}